<?xml version="1.0" encoding="utf-8" ?>
<svg baseProfile="full" height="620" version="1.1" width="1080" xmlns="http://www.w3.org/2000/svg"
  xmlns:ev="http://www.w3.org/2001/xml-events" xmlns:xlink="http://www.w3.org/1999/xlink">
    <defs />
    <rect fill="#D9D9D9" height="20" width="20" x="40" y="40" />
    <rect fill="#D9D9D9" height="20" width="20" x="20" y="0" />
    <rect fill="#D9D9D9" height="20" width="20" x="20" y="20" />
    <rect fill="#D9D9D9" height="20" width="20" x="20" y="40" />
    <rect fill="#D9D9D9" height="20" width="20" x="130" y="0" />
    <rect fill="#D9D9D9" height="20" width="20" x="130" y="20" />
    <rect fill="#D9D9D9" height="20" width="20" x="110" y="20" />
    <rect fill="#D9D9D9" height="20" width="20" x="110" y="40" />
    <rect fill="#D9D9D9" height="20" width="20" x="200" y="40" />
    <rect fill="#D9D9D9" height="20" width="20" x="220" y="40" />
    <rect fill="#D9D9D9" height="20" width="20" x="220" y="20" />
    <rect fill="#D9D9D9" height="20" width="20" x="220" y="0" />
    <rect fill="#D9D9D9" height="20" width="20" x="290" y="40" />
    <rect fill="#D9D9D9" height="20" width="20" x="290" y="20" />
    <rect fill="#D9D9D9" height="20" width="20" x="310" y="40" />
    <rect fill="#D9D9D9" height="20" width="20" x="310" y="20" />
    <rect fill="#D9D9D9" height="20" width="20" x="400" y="20" />
    <rect fill="#D9D9D9" height="20" width="20" x="380" y="40" />
    <rect fill="#D9D9D9" height="20" width="20" x="400" y="40" />
    <rect fill="#D9D9D9" height="20" width="20" x="420" y="40" />
    <rect fill="#D9D9D9" height="20" width="20" x="470" y="20" />
    <rect fill="#D9D9D9" height="20" width="20" x="470" y="40" />
    <rect fill="#D9D9D9" height="20" width="20" x="490" y="40" />
    <rect fill="#D9D9D9" height="20" width="20" x="510" y="40" />
    <rect fill="#D9D9D9" height="20" width="20" x="560" y="40" />
    <rect fill="#D9D9D9" height="20" width="20" x="560" y="20" />
    <rect fill="#D9D9D9" height="20" width="20" x="580" y="20" />
    <rect fill="#D9D9D9" height="20" width="20" x="580" y="0" />
    <rect fill="#D9D9D9" height="20" width="20" x="690" y="40" />
    <rect fill="#D9D9D9" height="20" width="20" x="670" y="40" />
    <rect fill="#D9D9D9" height="20" width="20" x="690" y="20" />
    <rect fill="#D9D9D9" height="20" width="20" x="670" y="20" />
    <rect fill="#D9D9D9" height="20" width="20" x="740" y="20" />
    <rect fill="#D9D9D9" height="20" width="20" x="740" y="40" />
    <rect fill="#D9D9D9" height="20" width="20" x="760" y="40" />
    <rect fill="#D9D9D9" height="20" width="20" x="780" y="40" />
    <rect fill="#D9D9D9" height="20" width="20" x="850" y="0" />
    <rect fill="#D9D9D9" height="20" width="20" x="850" y="20" />
    <rect fill="#D9D9D9" height="20" width="20" x="850" y="40" />
    <rect fill="#D9D9D9" height="20" width="20" x="850" y="60" />
    <rect fill="#D9D9D9" height="20" width="20" x="920" y="20" />
    <rect fill="#D9D9D9" height="20" width="20" x="920" y="40" />
    <rect fill="#D9D9D9" height="20" width="20" x="940" y="40" />
    <rect fill="#D9D9D9" height="20" width="20" x="960" y="40" />
    <rect fill="#D9D9D9" height="20" width="20" x="1050" y="40" />
    <rect fill="#D9D9D9" height="20" width="20" x="1030" y="40" />
    <rect fill="#D9D9D9" height="20" width="20" x="1030" y="20" />
    <rect fill="#D9D9D9" height="20" width="20" x="1010" y="20" />
    <rect fill="#D9D9D9" height="20" width="20" x="40" y="90" />
    <rect fill="#D9D9D9" height="20" width="20" x="40" y="110" />
    <rect fill="#D9D9D9" height="20" width="20" x="20" y="90" />
    <rect fill="#D9D9D9" height="20" width="20" x="20" y="110" />
    <rect fill="#D9D9D9" height="20" width="20" x="110" y="110" />
    <rect fill="#D9D9D9" height="20" width="20" x="130" y="130" />
    <rect fill="#D9D9D9" height="20" width="20" x="130" y="110" />
    <rect fill="#D9D9D9" height="20" width="20" x="130" y="90" />
    <rect fill="#D9D9D9" height="20" width="20" x="200" y="110" />
    <rect fill="#D9D9D9" height="20" width="20" x="220" y="130" />
    <rect fill="#D9D9D9" height="20" width="20" x="220" y="110" />
    <rect fill="#D9D9D9" height="20" width="20" x="220" y="90" />
    <rect fill="#D9D9D9" height="20" width="20" x="270" y="110" />
    <rect fill="#D9D9D9" height="20" width="20" x="290" y="110" />
    <rect fill="#D9D9D9" height="20" width="20" x="310" y="110" />
    <rect fill="#D9D9D9" height="20" width="20" x="330" y="110" />
    <rect fill="#D9D9D9" height="20" width="20" x="400" y="90" />
    <rect fill="#D9D9D9" height="20" width="20" x="400" y="110" />
    <rect fill="#D9D9D9" height="20" width="20" x="380" y="90" />
    <rect fill="#D9D9D9" height="20" width="20" x="380" y="110" />
    <rect fill="#D9D9D9" height="20" width="20" x="490" y="110" />
    <rect fill="#D9D9D9" height="20" width="20" x="510" y="110" />
    <rect fill="#D9D9D9" height="20" width="20" x="470" y="130" />
    <rect fill="#D9D9D9" height="20" width="20" x="490" y="130" />
    <rect fill="#D9D9D9" height="20" width="20" x="560" y="90" />
    <rect fill="#D9D9D9" height="20" width="20" x="580" y="130" />
    <rect fill="#D9D9D9" height="20" width="20" x="580" y="110" />
    <rect fill="#D9D9D9" height="20" width="20" x="580" y="90" />
    <rect fill="#D9D9D9" height="20" width="20" x="630" y="110" />
    <rect fill="#D9D9D9" height="20" width="20" x="650" y="110" />
    <rect fill="#D9D9D9" height="20" width="20" x="670" y="110" />
    <rect fill="#D9D9D9" height="20" width="20" x="690" y="110" />
    <rect fill="#D9D9D9" height="20" width="20" x="760" y="110" />
    <rect fill="#D9D9D9" height="20" width="20" x="740" y="130" />
    <rect fill="#D9D9D9" height="20" width="20" x="760" y="130" />
    <rect fill="#D9D9D9" height="20" width="20" x="780" y="130" />
    <rect fill="#D9D9D9" height="20" width="20" x="870" y="110" />
    <rect fill="#D9D9D9" height="20" width="20" x="830" y="130" />
    <rect fill="#D9D9D9" height="20" width="20" x="850" y="130" />
    <rect fill="#D9D9D9" height="20" width="20" x="870" y="130" />
    <rect fill="#D9D9D9" height="20" width="20" x="940" y="90" />
    <rect fill="#D9D9D9" height="20" width="20" x="940" y="110" />
    <rect fill="#D9D9D9" height="20" width="20" x="940" y="130" />
    <rect fill="#D9D9D9" height="20" width="20" x="940" y="150" />
    <rect fill="#D9D9D9" height="20" width="20" x="1030" y="150" />
    <rect fill="#D9D9D9" height="20" width="20" x="1030" y="130" />
    <rect fill="#D9D9D9" height="20" width="20" x="1030" y="110" />
    <rect fill="#D9D9D9" height="20" width="20" x="1030" y="90" />
    <rect fill="#D9D9D9" height="20" width="20" x="60" y="200" />
    <rect fill="#D9D9D9" height="20" width="20" x="40" y="200" />
    <rect fill="#D9D9D9" height="20" width="20" x="20" y="200" />
    <rect fill="#D9D9D9" height="20" width="20" x="0" y="200" />
    <rect fill="#D9D9D9" height="20" width="20" x="130" y="180" />
    <rect fill="#D9D9D9" height="20" width="20" x="130" y="200" />
    <rect fill="#D9D9D9" height="20" width="20" x="110" y="200" />
    <rect fill="#D9D9D9" height="20" width="20" x="110" y="220" />
    <rect fill="#D9D9D9" height="20" width="20" x="220" y="200" />
    <rect fill="#D9D9D9" height="20" width="20" x="240" y="200" />
    <rect fill="#D9D9D9" height="20" width="20" x="200" y="220" />
    <rect fill="#D9D9D9" height="20" width="20" x="220" y="220" />
    <rect fill="#D9D9D9" height="20" width="20" x="330" y="200" />
    <rect fill="#D9D9D9" height="20" width="20" x="310" y="200" />
    <rect fill="#D9D9D9" height="20" width="20" x="290" y="200" />
    <rect fill="#D9D9D9" height="20" width="20" x="270" y="200" />
    <rect fill="#D9D9D9" height="20" width="20" x="400" y="200" />
    <rect fill="#D9D9D9" height="20" width="20" x="380" y="180" />
    <rect fill="#D9D9D9" height="20" width="20" x="380" y="200" />
    <rect fill="#D9D9D9" height="20" width="20" x="380" y="220" />
    <rect fill="#D9D9D9" height="20" width="20" x="470" y="220" />
    <rect fill="#D9D9D9" height="20" width="20" x="470" y="200" />
    <rect fill="#D9D9D9" height="20" width="20" x="490" y="220" />
    <rect fill="#D9D9D9" height="20" width="20" x="490" y="200" />
    <rect fill="#D9D9D9" height="20" width="20" x="560" y="220" />
    <rect fill="#D9D9D9" height="20" width="20" x="580" y="220" />
    <rect fill="#D9D9D9" height="20" width="20" x="580" y="200" />
    <rect fill="#D9D9D9" height="20" width="20" x="580" y="180" />
    <rect fill="#D9D9D9" height="20" width="20" x="670" y="220" />
    <rect fill="#D9D9D9" height="20" width="20" x="650" y="180" />
    <rect fill="#D9D9D9" height="20" width="20" x="650" y="200" />
    <rect fill="#D9D9D9" height="20" width="20" x="650" y="220" />
    <rect fill="#D9D9D9" height="20" width="20" x="760" y="200" />
    <rect fill="#D9D9D9" height="20" width="20" x="760" y="220" />
    <rect fill="#D9D9D9" height="20" width="20" x="740" y="180" />
    <rect fill="#D9D9D9" height="20" width="20" x="740" y="200" />
    <rect fill="#D9D9D9" height="20" width="20" x="830" y="200" />
    <rect fill="#D9D9D9" height="20" width="20" x="850" y="220" />
    <rect fill="#D9D9D9" height="20" width="20" x="850" y="200" />
    <rect fill="#D9D9D9" height="20" width="20" x="850" y="180" />
    <rect fill="#D9D9D9" height="20" width="20" x="960" y="220" />
    <rect fill="#D9D9D9" height="20" width="20" x="940" y="220" />
    <rect fill="#D9D9D9" height="20" width="20" x="940" y="200" />
    <rect fill="#D9D9D9" height="20" width="20" x="920" y="200" />
    <rect fill="#D9D9D9" height="20" width="20" x="1030" y="200" />
    <rect fill="#D9D9D9" height="20" width="20" x="1010" y="180" />
    <rect fill="#D9D9D9" height="20" width="20" x="1010" y="200" />
    <rect fill="#D9D9D9" height="20" width="20" x="1010" y="220" />
    <rect fill="#D9D9D9" height="20" width="20" x="20" y="290" />
    <rect fill="#D9D9D9" height="20" width="20" x="20" y="270" />
    <rect fill="#D9D9D9" height="20" width="20" x="40" y="310" />
    <rect fill="#D9D9D9" height="20" width="20" x="40" y="290" />
    <rect fill="#D9D9D9" height="20" width="20" x="110" y="270" />
    <rect fill="#D9D9D9" height="20" width="20" x="130" y="310" />
    <rect fill="#D9D9D9" height="20" width="20" x="130" y="290" />
    <rect fill="#D9D9D9" height="20" width="20" x="130" y="270" />
    <rect fill="#D9D9D9" height="20" width="20" x="220" y="310" />
    <rect fill="#D9D9D9" height="20" width="20" x="200" y="310" />
    <rect fill="#D9D9D9" height="20" width="20" x="240" y="290" />
    <rect fill="#D9D9D9" height="20" width="20" x="220" y="290" />
    <rect fill="#D9D9D9" height="20" width="20" x="310" y="290" />
    <rect fill="#D9D9D9" height="20" width="20" x="290" y="310" />
    <rect fill="#D9D9D9" height="20" width="20" x="310" y="310" />
    <rect fill="#D9D9D9" height="20" width="20" x="330" y="310" />
    <rect fill="#D9D9D9" height="20" width="20" x="380" y="310" />
    <rect fill="#D9D9D9" height="20" width="20" x="380" y="290" />
    <rect fill="#D9D9D9" height="20" width="20" x="400" y="310" />
    <rect fill="#D9D9D9" height="20" width="20" x="400" y="290" />
    <rect fill="#D9D9D9" height="20" width="20" x="490" y="290" />
    <rect fill="#D9D9D9" height="20" width="20" x="490" y="310" />
    <rect fill="#D9D9D9" height="20" width="20" x="470" y="270" />
    <rect fill="#D9D9D9" height="20" width="20" x="470" y="290" />
    <rect fill="#D9D9D9" height="20" width="20" x="580" y="290" />
    <rect fill="#D9D9D9" height="20" width="20" x="580" y="310" />
    <rect fill="#D9D9D9" height="20" width="20" x="560" y="270" />
    <rect fill="#D9D9D9" height="20" width="20" x="560" y="290" />
    <rect fill="#D9D9D9" height="20" width="20" x="650" y="310" />
    <rect fill="#D9D9D9" height="20" width="20" x="690" y="290" />
    <rect fill="#D9D9D9" height="20" width="20" x="670" y="290" />
    <rect fill="#D9D9D9" height="20" width="20" x="650" y="290" />
    <rect fill="#D9D9D9" height="20" width="20" x="760" y="270" />
    <rect fill="#D9D9D9" height="20" width="20" x="760" y="290" />
    <rect fill="#D9D9D9" height="20" width="20" x="760" y="310" />
    <rect fill="#D9D9D9" height="20" width="20" x="760" y="330" />
    <rect fill="#D9D9D9" height="20" width="20" x="850" y="270" />
    <rect fill="#D9D9D9" height="20" width="20" x="850" y="290" />
    <rect fill="#D9D9D9" height="20" width="20" x="830" y="270" />
    <rect fill="#D9D9D9" height="20" width="20" x="830" y="290" />
    <rect fill="#D9D9D9" height="20" width="20" x="920" y="310" />
    <rect fill="#D9D9D9" height="20" width="20" x="940" y="310" />
    <rect fill="#D9D9D9" height="20" width="20" x="940" y="290" />
    <rect fill="#D9D9D9" height="20" width="20" x="940" y="270" />
    <rect fill="#D9D9D9" height="20" width="20" x="1030" y="270" />
    <rect fill="#D9D9D9" height="20" width="20" x="1030" y="290" />
    <rect fill="#D9D9D9" height="20" width="20" x="1010" y="270" />
    <rect fill="#D9D9D9" height="20" width="20" x="1010" y="290" />
    <rect fill="#D9D9D9" height="20" width="20" x="20" y="400" />
    <rect fill="#D9D9D9" height="20" width="20" x="20" y="380" />
    <rect fill="#D9D9D9" height="20" width="20" x="40" y="400" />
    <rect fill="#D9D9D9" height="20" width="20" x="40" y="380" />
    <rect fill="#D9D9D9" height="20" width="20" x="130" y="380" />
    <rect fill="#D9D9D9" height="20" width="20" x="110" y="400" />
    <rect fill="#D9D9D9" height="20" width="20" x="130" y="400" />
    <rect fill="#D9D9D9" height="20" width="20" x="150" y="400" />
    <rect fill="#D9D9D9" height="20" width="20" x="220" y="380" />
    <rect fill="#D9D9D9" height="20" width="20" x="200" y="400" />
    <rect fill="#D9D9D9" height="20" width="20" x="220" y="400" />
    <rect fill="#D9D9D9" height="20" width="20" x="240" y="400" />
    <rect fill="#D9D9D9" height="20" width="20" x="310" y="360" />
    <rect fill="#D9D9D9" height="20" width="20" x="310" y="380" />
    <rect fill="#D9D9D9" height="20" width="20" x="310" y="400" />
    <rect fill="#D9D9D9" height="20" width="20" x="310" y="420" />
    <rect fill="#D9D9D9" height="20" width="20" x="400" y="360" />
    <rect fill="#D9D9D9" height="20" width="20" x="400" y="380" />
    <rect fill="#D9D9D9" height="20" width="20" x="380" y="360" />
    <rect fill="#D9D9D9" height="20" width="20" x="380" y="380" />
    <rect fill="#D9D9D9" height="20" width="20" x="470" y="380" />
    <rect fill="#D9D9D9" height="20" width="20" x="470" y="400" />
    <rect fill="#D9D9D9" height="20" width="20" x="490" y="400" />
    <rect fill="#D9D9D9" height="20" width="20" x="510" y="400" />
    <rect fill="#D9D9D9" height="20" width="20" x="560" y="400" />
    <rect fill="#D9D9D9" height="20" width="20" x="600" y="380" />
    <rect fill="#D9D9D9" height="20" width="20" x="580" y="380" />
    <rect fill="#D9D9D9" height="20" width="20" x="560" y="380" />
    <rect fill="#D9D9D9" height="20" width="20" x="630" y="380" />
    <rect fill="#D9D9D9" height="20" width="20" x="650" y="380" />
    <rect fill="#D9D9D9" height="20" width="20" x="670" y="380" />
    <rect fill="#D9D9D9" height="20" width="20" x="690" y="380" />
    <rect fill="#D9D9D9" height="20" width="20" x="740" y="360" />
    <rect fill="#D9D9D9" height="20" width="20" x="760" y="400" />
    <rect fill="#D9D9D9" height="20" width="20" x="760" y="380" />
    <rect fill="#D9D9D9" height="20" width="20" x="760" y="360" />
    <rect fill="#D9D9D9" height="20" width="20" x="870" y="380" />
    <rect fill="#D9D9D9" height="20" width="20" x="850" y="380" />
    <rect fill="#D9D9D9" height="20" width="20" x="830" y="380" />
    <rect fill="#D9D9D9" height="20" width="20" x="810" y="380" />
    <rect fill="#D9D9D9" height="20" width="20" x="920" y="380" />
    <rect fill="#D9D9D9" height="20" width="20" x="920" y="360" />
    <rect fill="#D9D9D9" height="20" width="20" x="940" y="400" />
    <rect fill="#D9D9D9" height="20" width="20" x="940" y="380" />
    <rect fill="#D9D9D9" height="20" width="20" x="1010" y="380" />
    <rect fill="#D9D9D9" height="20" width="20" x="1010" y="400" />
    <rect fill="#D9D9D9" height="20" width="20" x="1030" y="400" />
    <rect fill="#D9D9D9" height="20" width="20" x="1050" y="400" />
    <rect fill="#D9D9D9" height="20" width="20" x="20" y="490" />
    <rect fill="#D9D9D9" height="20" width="20" x="20" y="470" />
    <rect fill="#D9D9D9" height="20" width="20" x="40" y="490" />
    <rect fill="#D9D9D9" height="20" width="20" x="40" y="470" />
    <rect fill="#D9D9D9" height="20" width="20" x="130" y="470" />
    <rect fill="#D9D9D9" height="20" width="20" x="150" y="470" />
    <rect fill="#D9D9D9" height="20" width="20" x="110" y="490" />
    <rect fill="#D9D9D9" height="20" width="20" x="130" y="490" />
    <rect fill="#D9D9D9" height="20" width="20" x="220" y="450" />
    <rect fill="#D9D9D9" height="20" width="20" x="220" y="470" />
    <rect fill="#D9D9D9" height="20" width="20" x="200" y="470" />
    <rect fill="#D9D9D9" height="20" width="20" x="200" y="490" />
    <rect fill="#D9D9D9" height="20" width="20" x="310" y="450" />
    <rect fill="#D9D9D9" height="20" width="20" x="310" y="470" />
    <rect fill="#D9D9D9" height="20" width="20" x="290" y="450" />
    <rect fill="#D9D9D9" height="20" width="20" x="290" y="470" />
    <rect fill="#D9D9D9" height="20" width="20" x="380" y="450" />
    <rect fill="#D9D9D9" height="20" width="20" x="400" y="490" />
    <rect fill="#D9D9D9" height="20" width="20" x="400" y="470" />
    <rect fill="#D9D9D9" height="20" width="20" x="400" y="450" />
    <rect fill="#D9D9D9" height="20" width="20" x="490" y="490" />
    <rect fill="#D9D9D9" height="20" width="20" x="510" y="470" />
    <rect fill="#D9D9D9" height="20" width="20" x="490" y="470" />
    <rect fill="#D9D9D9" height="20" width="20" x="470" y="470" />
    <rect fill="#D9D9D9" height="20" width="20" x="600" y="490" />
    <rect fill="#D9D9D9" height="20" width="20" x="600" y="470" />
    <rect fill="#D9D9D9" height="20" width="20" x="580" y="470" />
    <rect fill="#D9D9D9" height="20" width="20" x="560" y="470" />
    <rect fill="#D9D9D9" height="20" width="20" x="650" y="470" />
    <rect fill="#D9D9D9" height="20" width="20" x="650" y="450" />
    <rect fill="#D9D9D9" height="20" width="20" x="670" y="490" />
    <rect fill="#D9D9D9" height="20" width="20" x="670" y="470" />
    <rect fill="#D9D9D9" height="20" width="20" x="740" y="470" />
    <rect fill="#D9D9D9" height="20" width="20" x="760" y="490" />
    <rect fill="#D9D9D9" height="20" width="20" x="760" y="470" />
    <rect fill="#D9D9D9" height="20" width="20" x="760" y="450" />
    <rect fill="#D9D9D9" height="20" width="20" x="850" y="490" />
    <rect fill="#D9D9D9" height="20" width="20" x="830" y="490" />
    <rect fill="#D9D9D9" height="20" width="20" x="870" y="470" />
    <rect fill="#D9D9D9" height="20" width="20" x="850" y="470" />
    <rect fill="#D9D9D9" height="20" width="20" x="960" y="470" />
    <rect fill="#D9D9D9" height="20" width="20" x="920" y="490" />
    <rect fill="#D9D9D9" height="20" width="20" x="940" y="490" />
    <rect fill="#D9D9D9" height="20" width="20" x="960" y="490" />
    <rect fill="#D9D9D9" height="20" width="20" x="1030" y="450" />
    <rect fill="#D9D9D9" height="20" width="20" x="1030" y="470" />
    <rect fill="#D9D9D9" height="20" width="20" x="1030" y="490" />
    <rect fill="#D9D9D9" height="20" width="20" x="1030" y="510" />
    <rect fill="#D9D9D9" height="20" width="20" x="20" y="560" />
    <rect fill="#D9D9D9" height="20" width="20" x="20" y="540" />
    <rect fill="#D9D9D9" height="20" width="20" x="40" y="580" />
    <rect fill="#D9D9D9" height="20" width="20" x="40" y="560" />
    <rect fill="#D9D9D9" height="20" width="20" x="130" y="560" />
    <rect fill="#D9D9D9" height="20" width="20" x="110" y="580" />
    <rect fill="#D9D9D9" height="20" width="20" x="130" y="580" />
    <rect fill="#D9D9D9" height="20" width="20" x="150" y="580" />
    <rect fill="#D9D9D9" height="20" width="20" x="240" y="560" />
    <rect fill="#D9D9D9" height="20" width="20" x="220" y="560" />
    <rect fill="#D9D9D9" height="20" width="20" x="200" y="560" />
    <rect fill="#D9D9D9" height="20" width="20" x="180" y="560" />
    <rect fill="#D9D9D9" height="20" width="20" x="310" y="580" />
    <rect fill="#D9D9D9" height="20" width="20" x="330" y="560" />
    <rect fill="#D9D9D9" height="20" width="20" x="310" y="560" />
    <rect fill="#D9D9D9" height="20" width="20" x="290" y="560" />
    <rect fill="#D9D9D9" height="20" width="20" x="380" y="580" />
    <rect fill="#D9D9D9" height="20" width="20" x="380" y="560" />
    <rect fill="#D9D9D9" height="20" width="20" x="400" y="560" />
    <rect fill="#D9D9D9" height="20" width="20" x="400" y="540" />
    <rect fill="#D9D9D9" height="20" width="20" x="490" y="540" />
    <rect fill="#D9D9D9" height="20" width="20" x="490" y="560" />
    <rect fill="#D9D9D9" height="20" width="20" x="470" y="560" />
    <rect fill="#D9D9D9" height="20" width="20" x="470" y="580" />
    <rect fill="#D9D9D9" height="20" width="20" x="540" y="560" />
    <rect fill="#D9D9D9" height="20" width="20" x="560" y="560" />
    <rect fill="#D9D9D9" height="20" width="20" x="580" y="560" />
    <rect fill="#D9D9D9" height="20" width="20" x="600" y="560" />
    <rect fill="#D9D9D9" height="20" width="20" x="690" y="560" />
    <rect fill="#D9D9D9" height="20" width="20" x="670" y="560" />
    <rect fill="#D9D9D9" height="20" width="20" x="650" y="560" />
    <rect fill="#D9D9D9" height="20" width="20" x="630" y="560" />
    <rect fill="#D9D9D9" height="20" width="20" x="740" y="560" />
    <rect fill="#D9D9D9" height="20" width="20" x="760" y="580" />
    <rect fill="#D9D9D9" height="20" width="20" x="760" y="560" />
    <rect fill="#D9D9D9" height="20" width="20" x="760" y="540" />
    <rect fill="#D9D9D9" height="20" width="20" x="870" y="580" />
    <rect fill="#D9D9D9" height="20" width="20" x="850" y="580" />
    <rect fill="#D9D9D9" height="20" width="20" x="870" y="560" />
    <rect fill="#D9D9D9" height="20" width="20" x="850" y="560" />
    <rect fill="#D9D9D9" height="20" width="20" x="920" y="560" />
    <rect fill="#D9D9D9" height="20" width="20" x="920" y="580" />
    <rect fill="#D9D9D9" height="20" width="20" x="940" y="580" />
    <rect fill="#D9D9D9" height="20" width="20" x="960" y="580" />
    <rect fill="#D9D9D9" height="20" width="20" x="990" y="560" />
    <rect fill="#D9D9D9" height="20" width="20" x="1010" y="560" />
    <rect fill="#D9D9D9" height="20" width="20" x="1030" y="560" />
    <rect fill="#D9D9D9" height="20" width="20" x="1050" y="560" />
</svg>